<svg width="1689" height="372" viewBox="0 0 1689 372" fill="none" xmlns="http://www.w3.org/2000/svg">
<path d="M195.737 153.236H84.2381V48.7402H32V153.236H84.1947V206.772H32V315.533H84.2381V206.772H195.737V315.533H247.975V48.7402H195.737V153.236Z" fill="black"/>
<path d="M363.548 48.7402L270.416 315.533H324.984L342.066 264.783H445.249L462.331 315.533H517.245L424.112 48.7402H363.635H363.548ZM356.129 222.018L393.614 110.581L431.1 222.018H356.129Z" fill="black"/>
<path d="M706.516 231.955L588.864 48.7402H536.876V315.533H588.864V132.717L706.516 315.533H758.461V48.7402H706.516V231.955Z" fill="black"/>
<path d="M880.922 103.977C914.615 83.4117 967.524 91.5763 984.348 131.119H1044.56C999.956 -8.16348 782.234 33.7182 789.495 180.856C782.234 327.598 1000.74 369.612 1044.56 230.197H984.348C967.567 269.828 914.745 278.434 880.922 257.736C830.404 227.284 830.317 134.252 880.922 103.977Z" fill="black"/>
<path d="M1261 61.7411C1103.5 -23.6566 974.822 205.106 1125.97 299.647C1283.43 385.045 1410.97 156.46 1261 61.7411ZM1263.05 227.476C1199.43 328.232 1073.67 235.555 1123.31 133.734C1187.45 34.3551 1312.6 125.345 1263.05 227.476Z" fill="black"/>
<path d="M1583.15 48.7402L1500.51 247.113L1417.86 48.7402H1358.71V315.533H1410.81V141.996L1480.77 315.533H1520.24L1589.86 141.996V315.533H1642V48.7402H1583.15Z" fill="black"/>
<path d="M247.975 152.014H85.292V206.52H247.975V152.014Z" fill="#FC5E20"/>
</svg>
